<svg width="196" height="28" viewBox="0 0 196 28" fill="none" xmlns="http://www.w3.org/2000/svg">
<path d="M2.85115 27V4.04405H10.078V27H2.85115ZM17.5411 27V13.5854C17.5411 12.4203 17.1789 11.5228 16.4547 10.893C15.7619 10.2318 14.8959 9.90112 13.8568 9.90112C13.1325 9.90112 12.487 10.0586 11.9202 10.3735C11.3534 10.6569 10.8968 11.0662 10.5504 11.6016C10.2355 12.1369 10.078 12.7982 10.078 13.5854L7.29119 12.3573C7.29119 10.5309 7.68481 8.97218 8.47205 7.6811C9.2593 6.35854 10.3299 5.35087 11.684 4.6581C13.0381 3.93383 14.5653 3.5717 16.2657 3.5717C17.8717 3.5717 19.3045 3.93383 20.5641 4.6581C21.8552 5.38236 22.8786 6.39003 23.6343 7.6811C24.3901 8.97218 24.7679 10.5152 24.7679 12.3101V27H17.5411ZM32.231 27V13.5854C32.231 12.4203 31.8689 11.5228 31.1446 10.893C30.4518 10.2318 29.5859 9.90112 28.5467 9.90112C27.8224 9.90112 27.1769 10.0586 26.6101 10.3735C26.0433 10.6569 25.5867 11.0662 25.2403 11.6016C24.9254 12.1369 24.7679 12.7982 24.7679 13.5854L20.6113 13.0186C20.6743 11.0662 21.1309 9.39729 21.9811 8.01174C22.8628 6.59471 24.0122 5.50832 25.4292 4.75257C26.8778 3.96532 28.4995 3.5717 30.2944 3.5717C32.0578 3.5717 33.6165 3.94958 34.9706 4.70533C36.3561 5.42959 37.4425 6.4845 38.2298 7.87004C39.0485 9.22409 39.4579 10.8616 39.4579 12.7824V27H32.231Z" fill="black"/>
<path d="M48.6236 27.5196C47.3955 27.5196 46.3721 27.0945 45.5533 26.2442C44.7346 25.394 44.3252 24.3706 44.3252 23.174C44.3252 21.9144 44.7346 20.8753 45.5533 20.0565C46.3721 19.2063 47.3955 18.7812 48.6236 18.7812C49.8832 18.7812 50.9066 19.2063 51.6938 20.0565C52.5125 20.8753 52.9219 21.9144 52.9219 23.174C52.9219 24.3706 52.5125 25.394 51.6938 26.2442C50.9066 27.0945 49.8832 27.5196 48.6236 27.5196Z" fill="#46484C"/>
<path d="M72.4413 8.71397V12.6077C72.4413 14.0559 72.5471 15.131 72.7588 15.8329C72.1795 15.9777 71.7004 16.0501 71.3217 16.0501C70.319 16.0501 69.8177 15.6324 69.8177 14.7968C69.8177 14.6631 69.8177 14.3567 69.8177 13.8777C69.8288 13.3986 69.8344 12.6968 69.8344 11.7721C69.8455 10.8363 69.8511 9.93388 69.8511 9.0649C68.8596 11.8612 68.1967 14.1284 67.8625 15.8663C67.5505 15.9777 67.1717 16.0334 66.7261 16.0334C65.8126 16.0334 65.2722 15.8273 65.1051 15.4151C64.8935 14.9026 64.5648 13.8833 64.1192 12.357C63.6736 10.8196 63.3115 9.69435 63.033 8.98135V12.6077C63.033 14.1116 63.1388 15.2146 63.3505 15.9164C62.9494 16.0056 62.5595 16.0501 62.1807 16.0501C61.2337 16.0501 60.7603 15.7326 60.7603 15.0976C60.7603 14.9194 60.7658 14.4793 60.777 13.7774C60.7881 13.0756 60.7937 12.5297 60.7937 12.1397V7.92855C60.7937 6.68079 60.6878 5.70041 60.4762 4.9874C61.178 4.88714 61.7351 4.837 62.1473 4.837C63.1611 4.837 63.8184 5.17122 64.1192 5.83967C64.4534 6.5861 64.7765 7.4495 65.0884 8.42988C65.4115 9.39913 65.6566 10.1957 65.8237 10.8196C66.002 11.4323 66.2749 12.4183 66.6426 13.7774C67.2664 10.814 68.141 8.1068 69.2662 5.65585C69.411 5.34391 69.645 5.13223 69.9681 5.02083C70.2911 4.90942 70.7145 4.85371 71.2381 4.85371C71.8286 4.85371 72.3299 4.89828 72.7421 4.9874C72.5416 5.65585 72.4413 6.89804 72.4413 8.71397ZM80.5176 11.1872C80.3393 10.5745 80.1277 9.78905 79.8826 8.83095C79.6375 7.86171 79.4926 7.2991 79.4481 7.14313C78.7573 9.54953 78.3674 10.8976 78.2783 11.1872C78.8131 11.2095 79.2364 11.2206 79.5483 11.2206C79.9828 11.2206 80.3059 11.2095 80.5176 11.1872ZM79.3311 12.875C78.8743 12.875 78.3786 12.8527 77.8438 12.8082C77.0862 14.6353 76.6295 15.7995 76.4735 16.3008C76.0836 16.2451 75.7995 16.2005 75.6212 16.1671C75.443 16.1337 75.2369 16.078 75.0029 16C74.769 15.9109 74.6074 15.7995 74.5183 15.6658C74.4292 15.5321 74.3846 15.365 74.3846 15.1644C74.3846 14.9305 74.574 14.3623 74.9528 13.4599C75.3427 12.5575 75.8608 11.3098 76.5069 9.71664C77.1531 8.12351 77.699 6.56381 78.1446 5.03754C78.6682 4.95955 79.0971 4.92056 79.4314 4.92056C80.3672 4.92056 80.9688 5.32719 81.2362 6.14047C82.0606 8.68055 82.651 10.4074 83.0075 11.3209C83.8765 13.5825 84.467 15.0196 84.7789 15.6324C84.2553 15.9889 83.7372 16.1671 83.2248 16.1671C82.5675 16.1671 82.1441 15.9554 81.9547 15.5321C81.8322 15.2424 81.6651 14.8302 81.4534 14.2955C81.2529 13.7607 81.0635 13.2761 80.8852 12.8416C80.0162 12.8639 79.4982 12.875 79.3311 12.875ZM86.2872 12.1397V8.79753C86.2872 7.57205 86.2371 6.30758 86.1368 5.00411C86.5602 4.91499 87.0002 4.87043 87.457 4.87043C87.8803 4.87043 88.2368 4.94284 88.5265 5.08767C88.8273 5.2325 88.9777 5.46088 88.9777 5.77282C88.9777 5.82853 88.9554 6.27973 88.9108 7.12642C88.8774 7.97311 88.8607 8.68055 88.8607 9.24873C89.7631 8.61371 90.6544 7.87285 91.5345 7.02615C92.4146 6.17946 92.9883 5.42189 93.2557 4.75345C93.7793 4.92056 94.1303 5.09881 94.3085 5.2882C94.4868 5.46645 94.5759 5.6837 94.5759 5.93993C94.5759 6.67522 93.4228 7.88399 91.1167 9.56624C92.3979 11.5716 93.3783 12.9809 94.0579 13.7941C94.4144 14.2063 94.7542 14.4124 95.0772 14.4124C95.1107 14.4124 95.2611 14.3957 95.5284 14.3623C95.6287 14.6631 95.6788 14.9138 95.6788 15.1143C95.6788 15.4708 95.5117 15.7382 95.1775 15.9164C94.8544 16.0836 94.4589 16.1671 93.991 16.1671C93.3783 16.1671 92.7711 15.883 92.1695 15.3148C91.3785 14.5684 90.3703 13.1034 89.1448 10.9198C89.1225 10.931 89.0278 10.9922 88.8607 11.1037V12.6077C88.8607 13.8554 88.9944 14.9249 89.2618 15.8162C88.8496 15.9721 88.3427 16.0501 87.7411 16.0501C87.5183 16.0501 87.3344 16.0334 87.1896 16C87.0448 15.9777 86.8888 15.9276 86.7217 15.8496C86.5657 15.7605 86.4487 15.6156 86.3708 15.4151C86.2928 15.2034 86.2538 14.9361 86.2538 14.613C86.2538 14.4013 86.2594 14.0058 86.2705 13.4265C86.2816 12.836 86.2872 12.4071 86.2872 12.1397Z" fill="black"/>
<path d="M101.164 11.5047C101.164 11.8389 101.047 12.1063 100.813 12.3069C100.591 12.5074 100.29 12.6077 99.911 12.6077C99.7885 12.6077 99.5657 12.5909 99.2426 12.5575C98.9195 12.513 98.6689 12.4907 98.4906 12.4907C98.0673 12.4907 97.5882 12.5798 97.0534 12.7581C96.9755 12.3681 96.9365 12.0506 96.9365 11.8055C96.9365 11.5047 97.0367 11.2485 97.2373 11.0368C97.4378 10.814 97.7553 10.7026 98.1898 10.7026C98.2566 10.7026 98.4516 10.7193 98.7747 10.7527C99.0978 10.7861 99.354 10.8029 99.5434 10.8029H99.6771C100.156 10.8029 100.591 10.7193 100.981 10.5522C101.103 10.8864 101.164 11.2039 101.164 11.5047Z" fill="#46484C"/>
<path d="M105.362 12.357V9.26544C105.362 8.2962 105.346 7.41051 105.312 6.60838C103.886 6.60838 102.839 6.6418 102.17 6.70864C102.115 6.54153 102.087 6.26858 102.087 5.8898C102.087 5.67813 102.126 5.50545 102.204 5.37176C102.282 5.23807 102.404 5.14337 102.571 5.08767C102.75 5.03196 102.917 4.99854 103.073 4.9874C103.229 4.96512 103.44 4.95398 103.708 4.95398H107.301C109.172 4.95398 110.442 4.9317 111.111 4.88714C111.167 5.13223 111.194 5.38847 111.194 5.65585C111.194 6.29087 110.771 6.60838 109.924 6.60838H108.019C107.964 7.66674 107.936 8.69726 107.936 9.69993V12.8249C107.936 13.9501 108.069 14.9472 108.337 15.8162C107.847 15.9721 107.312 16.0501 106.733 16.0501C106.198 16.0501 105.83 15.9332 105.63 15.6992C105.429 15.4541 105.329 15.092 105.329 14.613C105.329 14.4459 105.334 14.1172 105.346 13.627C105.357 13.1368 105.362 12.7135 105.362 12.357ZM115.488 6.62509C115.532 6.98159 115.555 7.83943 115.555 9.19859H116.875C117.588 9.19859 118.245 9.16517 118.847 9.09833C118.914 9.24316 118.947 9.47711 118.947 9.80019C118.947 10.2124 118.852 10.5021 118.663 10.6692C118.474 10.8251 118.134 10.9031 117.644 10.9031H115.555C115.555 12.7859 115.599 13.9167 115.688 14.2955C116.179 14.3178 116.574 14.3289 116.875 14.3289C118.691 14.3289 119.861 14.2008 120.384 13.9445C120.518 14.2788 120.585 14.6631 120.585 15.0976C120.585 15.4764 120.434 15.7271 120.134 15.8496C119.844 15.9721 119.259 16.0334 118.379 16.0334C115.716 16.0334 114.173 16.0223 113.75 16C113.427 15.9889 113.21 15.9109 113.098 15.766C112.987 15.6212 112.931 15.3817 112.931 15.0475C112.931 14.8692 112.937 14.457 112.948 13.8108C112.959 13.1647 112.964 12.6466 112.964 12.2567V8.9145C112.964 7.34366 112.892 6.04577 112.747 5.02083C114.184 4.92056 115.649 4.87043 117.142 4.87043C118.747 4.87043 119.788 4.95955 120.267 5.1378C120.479 5.21579 120.585 5.4386 120.585 5.80625C120.585 6.24073 120.518 6.61952 120.384 6.9426C119.649 6.70864 118.407 6.59167 116.658 6.59167C116.435 6.59167 116.045 6.60281 115.488 6.62509ZM130.532 13.0421C131.378 13.4321 131.802 13.8888 131.802 14.4124C131.802 14.7355 131.662 15.0196 131.384 15.2647C131.116 15.5098 130.777 15.6936 130.364 15.8162C129.963 15.9387 129.579 16.0279 129.211 16.0836C128.844 16.1393 128.51 16.1671 128.209 16.1671C127.485 16.1671 126.794 16.0724 126.137 15.883C125.479 15.6825 124.85 15.3761 124.248 14.9639C123.658 14.5406 123.184 13.9445 122.828 13.1758C122.471 12.396 122.293 11.488 122.293 10.4519C122.293 8.66941 122.822 7.27682 123.881 6.27416C124.939 5.26035 126.376 4.75345 128.192 4.75345C129.161 4.75345 129.975 4.9317 130.632 5.2882C131.3 5.63356 131.635 6.06248 131.635 6.57495C131.635 6.96488 131.473 7.28239 131.15 7.52749C130.827 7.77258 130.398 7.92855 129.863 7.9954C129.674 7.48292 129.373 7.09857 128.961 6.84233C128.549 6.57495 128.108 6.44127 127.641 6.44127C126.872 6.44127 126.237 6.7922 125.736 7.49406C125.245 8.19593 125 9.07047 125 10.1177C125 11.3543 125.251 12.3904 125.752 13.226C126.265 14.0615 126.978 14.4793 127.891 14.4793C128.404 14.4793 128.894 14.3623 129.362 14.1284C129.841 13.8944 130.231 13.5323 130.532 13.0421ZM140.105 7.67789C139.927 7.3548 139.599 7.07629 139.12 6.84233C138.64 6.59724 138.178 6.47469 137.732 6.47469C137.365 6.47469 137.064 6.57495 136.83 6.77549C136.607 6.96488 136.496 7.26011 136.496 7.66117C136.496 8.01768 136.624 8.31848 136.88 8.56357C137.148 8.80867 137.471 8.99249 137.849 9.11504C138.239 9.22644 138.663 9.37127 139.12 9.54953C139.576 9.72778 139.994 9.91717 140.373 10.1177C140.763 10.3182 141.086 10.6302 141.342 11.0535C141.609 11.4769 141.743 11.9893 141.743 12.5909C141.743 13.2482 141.615 13.8164 141.359 14.2955C141.114 14.7745 140.774 15.1477 140.339 15.4151C139.905 15.6713 139.437 15.8607 138.936 15.9833C138.446 16.1058 137.916 16.1671 137.348 16.1671C136.323 16.1671 135.438 16.0223 134.691 15.7326C133.956 15.443 133.588 15.0642 133.588 14.5963C133.588 14.2509 133.683 13.9724 133.872 13.7607C134.062 13.549 134.385 13.3207 134.841 13.0756C135.12 13.4655 135.538 13.7941 136.095 14.0615C136.652 14.3178 137.192 14.4459 137.716 14.4459C138.161 14.4459 138.523 14.34 138.802 14.1284C139.081 13.9167 139.22 13.588 139.22 13.1424C139.22 12.7191 139.036 12.3793 138.668 12.123C138.312 11.8668 137.877 11.6607 137.365 11.5047C136.852 11.3488 136.34 11.1649 135.827 10.9533C135.315 10.7304 134.875 10.3684 134.507 9.86704C134.151 9.3657 133.973 8.71954 133.973 7.92855C133.973 7.36037 134.095 6.86461 134.34 6.44127C134.585 6.01792 134.914 5.68927 135.326 5.45531C135.749 5.21022 136.206 5.03196 136.696 4.92056C137.198 4.80915 137.738 4.75345 138.317 4.75345C139.231 4.75345 140.016 4.88714 140.674 5.15451C141.331 5.42189 141.66 5.7951 141.66 6.27416C141.66 6.56381 141.52 6.83676 141.242 7.093C140.974 7.34923 140.596 7.5442 140.105 7.67789Z" fill="#212121"/>
<path d="M60.725 25V19.0133H64.338V19.6564H61.4499V21.6793H64.1509V22.3224H61.4499V24.3569H64.3848V25H60.725ZM66.2097 25V20.51H66.8762V21.2115H66.9346C67.0282 20.9718 67.1792 20.7857 67.3877 20.6532C67.5962 20.5187 67.8467 20.4515 68.139 20.4515C68.4352 20.4515 68.6817 20.5187 68.8786 20.6532C69.0773 20.7857 69.2323 20.9718 69.3433 21.2115H69.3901C69.5051 20.9796 69.6776 20.7955 69.9075 20.6591C70.1375 20.5207 70.4132 20.4515 70.7348 20.4515C71.1362 20.4515 71.4646 20.5772 71.7199 20.8286C71.9752 21.0781 72.1028 21.4668 72.1028 21.995V25H71.413V21.995C71.413 21.6637 71.3223 21.4269 71.1411 21.2846C70.9599 21.1424 70.7465 21.0712 70.5009 21.0712C70.1852 21.0712 69.9406 21.1667 69.7672 21.3577C69.5938 21.5467 69.507 21.7864 69.507 22.0768V25H68.8055V21.9248C68.8055 21.6695 68.7226 21.4639 68.557 21.308C68.3914 21.1502 68.178 21.0712 67.9168 21.0712C67.7375 21.0712 67.5699 21.119 67.414 21.2145C67.2601 21.31 67.1354 21.4425 67.0399 21.612C66.9463 21.7796 66.8996 21.9735 66.8996 22.1937V25H66.2097ZM74.0227 26.6838V20.51H74.6892V21.2232H74.7711C74.8217 21.1453 74.8919 21.0459 74.9815 20.9251C75.0731 20.8023 75.2037 20.6932 75.3732 20.5977C75.5447 20.5002 75.7766 20.4515 76.069 20.4515C76.447 20.4515 76.7803 20.546 77.0687 20.7351C77.3571 20.9241 77.5822 21.1921 77.7439 21.5389C77.9057 21.8858 77.9866 22.2951 77.9866 22.7667C77.9866 23.2422 77.9057 23.6544 77.7439 24.0032C77.5822 24.3501 77.3581 24.619 77.0716 24.81C76.7851 24.999 76.4548 25.0935 76.0807 25.0935C75.7922 25.0935 75.5613 25.0458 75.3879 24.9503C75.2144 24.8529 75.0809 24.7428 74.9874 24.62C74.8938 24.4953 74.8217 24.392 74.7711 24.3101H74.7126V26.6838H74.0227ZM74.7009 22.755C74.7009 23.0941 74.7506 23.3932 74.85 23.6524C74.9494 23.9096 75.0946 24.1113 75.2855 24.2575C75.4765 24.4017 75.7104 24.4738 75.9871 24.4738C76.2755 24.4738 76.5162 24.3978 76.7091 24.2458C76.904 24.0919 77.0502 23.8853 77.1476 23.6261C77.247 23.365 77.2967 23.0746 77.2967 22.755C77.2967 22.4393 77.248 22.1548 77.1505 21.9014C77.0551 21.6461 76.9099 21.4444 76.715 21.2963C76.5221 21.1463 76.2794 21.0712 75.9871 21.0712C75.7065 21.0712 75.4707 21.1424 75.2797 21.2846C75.0887 21.4249 74.9445 21.6218 74.8471 21.8751C74.7496 22.1265 74.7009 22.4198 74.7009 22.755ZM81.5215 25.0935C81.1162 25.0935 80.7605 24.9971 80.4546 24.8041C80.1506 24.6112 79.9128 24.3413 79.7413 23.9944C79.5718 23.6475 79.487 23.2422 79.487 22.7784C79.487 22.3107 79.5718 21.9024 79.7413 21.5536C79.9128 21.2047 80.1506 20.9338 80.4546 20.7409C80.7605 20.548 81.1162 20.4515 81.5215 20.4515C81.9269 20.4515 82.2816 20.548 82.5856 20.7409C82.8915 20.9338 83.1293 21.2047 83.2988 21.5536C83.4703 21.9024 83.5561 22.3107 83.5561 22.7784C83.5561 23.2422 83.4703 23.6475 83.2988 23.9944C83.1293 24.3413 82.8915 24.6112 82.5856 24.8041C82.2816 24.9971 81.9269 25.0935 81.5215 25.0935ZM81.5215 24.4738C81.8294 24.4738 82.0828 24.3949 82.2816 24.237C82.4803 24.0792 82.6275 23.8716 82.723 23.6144C82.8185 23.3572 82.8662 23.0785 82.8662 22.7784C82.8662 22.4783 82.8185 22.1986 82.723 21.9394C82.6275 21.6802 82.4803 21.4707 82.2816 21.3109C82.0828 21.1511 81.8294 21.0712 81.5215 21.0712C81.2136 21.0712 80.9603 21.1511 80.7615 21.3109C80.5627 21.4707 80.4156 21.6802 80.3201 21.9394C80.2246 22.1986 80.1769 22.4783 80.1769 22.7784C80.1769 23.0785 80.2246 23.3572 80.3201 23.6144C80.4156 23.8716 80.5627 24.0792 80.7615 24.237C80.9603 24.3949 81.2136 24.4738 81.5215 24.4738ZM86.1322 25L84.7642 20.51H85.4891L86.4596 23.9477H86.5064L87.4652 20.51H88.2018L89.149 23.936H89.1957L90.1662 20.51H90.8912L89.5231 25H88.8449L87.8628 21.5506H87.7926L86.8104 25H86.1322ZM94.1915 25.0935C93.7589 25.0935 93.3857 24.9981 93.072 24.8071C92.7602 24.6141 92.5195 24.3452 92.3499 24.0003C92.1823 23.6534 92.0985 23.25 92.0985 22.7901C92.0985 22.3302 92.1823 21.9248 92.3499 21.574C92.5195 21.2213 92.7553 20.9465 93.0574 20.7497C93.3614 20.5509 93.716 20.4515 94.1214 20.4515C94.3552 20.4515 94.5862 20.4905 94.8142 20.5684C95.0422 20.6464 95.2497 20.7731 95.4368 20.9485C95.6239 21.1219 95.773 21.3519 95.8841 21.6383C95.9952 21.9248 96.0507 22.2775 96.0507 22.6965V22.9888H92.5896V22.3925H95.3491C95.3491 22.1392 95.2985 21.9131 95.1971 21.7143C95.0977 21.5156 94.9555 21.3587 94.7703 21.2437C94.5872 21.1287 94.3708 21.0712 94.1214 21.0712C93.8466 21.0712 93.6089 21.1394 93.4081 21.2759C93.2094 21.4103 93.0564 21.5857 92.9492 21.802C92.842 22.0183 92.7884 22.2503 92.7884 22.4977V22.8953C92.7884 23.2344 92.8469 23.5218 92.9638 23.7576C93.0827 23.9915 93.2474 24.1698 93.4578 24.2926C93.6683 24.4134 93.9129 24.4738 94.1915 24.4738C94.3728 24.4738 94.5365 24.4485 94.6826 24.3978C94.8308 24.3452 94.9584 24.2673 95.0656 24.164C95.1728 24.0587 95.2556 23.9282 95.3141 23.7723L95.9805 23.9593C95.9104 24.1854 95.7925 24.3842 95.6268 24.5557C95.4612 24.7252 95.2566 24.8577 95.013 24.9532C94.7694 25.0468 94.4956 25.0935 94.1915 25.0935ZM97.7587 25V20.51H98.4251V21.1882H98.4719C98.5538 20.966 98.7019 20.7857 98.9162 20.6474C99.1306 20.509 99.3723 20.4398 99.6412 20.4398C99.6919 20.4398 99.7552 20.4408 99.8312 20.4427C99.9072 20.4447 99.9647 20.4476 100.004 20.4515V21.1531C99.9803 21.1472 99.9267 21.1385 99.8429 21.1268C99.761 21.1131 99.6743 21.1063 99.5827 21.1063C99.3645 21.1063 99.1696 21.1521 98.9981 21.2437C98.8285 21.3333 98.6941 21.4581 98.5947 21.6179C98.4973 21.7757 98.4485 21.956 98.4485 22.1587V25H97.7587ZM101.48 25V20.51H102.17V25H101.48ZM101.831 19.7616C101.696 19.7616 101.58 19.7158 101.483 19.6243C101.387 19.5327 101.34 19.4226 101.34 19.2939C101.34 19.1653 101.387 19.0552 101.483 18.9636C101.58 18.872 101.696 18.8262 101.831 18.8262C101.965 18.8262 102.08 18.872 102.176 18.9636C102.273 19.0552 102.322 19.1653 102.322 19.2939C102.322 19.4226 102.273 19.5327 102.176 19.6243C102.08 19.7158 101.965 19.7616 101.831 19.7616ZM104.782 22.299V25H104.092V20.51H104.758V21.2115H104.817C104.922 20.9835 105.082 20.8003 105.296 20.662C105.511 20.5217 105.787 20.4515 106.126 20.4515C106.43 20.4515 106.696 20.5139 106.925 20.6386C107.153 20.7614 107.33 20.9485 107.457 21.1999C107.583 21.4493 107.647 21.765 107.647 22.147V25H106.957V22.1937C106.957 21.841 106.865 21.5662 106.682 21.3694C106.499 21.1706 106.247 21.0712 105.928 21.0712C105.707 21.0712 105.511 21.119 105.337 21.2145C105.166 21.31 105.03 21.4493 104.931 21.6325C104.831 21.8157 104.782 22.0378 104.782 22.299ZM111.378 26.7773C111.045 26.7773 110.758 26.7344 110.519 26.6487C110.279 26.5649 110.079 26.4538 109.919 26.3154C109.762 26.179 109.636 26.0329 109.542 25.877L110.092 25.4911C110.154 25.5729 110.233 25.6665 110.329 25.7717C110.424 25.8789 110.555 25.9715 110.72 26.0494C110.888 26.1293 111.107 26.1693 111.378 26.1693C111.741 26.1693 112.04 26.0816 112.275 25.9062C112.511 25.7308 112.629 25.456 112.629 25.0818V24.1698H112.571C112.52 24.2517 112.448 24.353 112.354 24.4738C112.263 24.5927 112.13 24.6989 111.957 24.7925C111.785 24.884 111.553 24.9298 111.261 24.9298C110.899 24.9298 110.573 24.8441 110.285 24.6726C109.998 24.5011 109.771 24.2517 109.604 23.9243C109.438 23.5969 109.355 23.1993 109.355 22.7316C109.355 22.2717 109.436 21.8712 109.598 21.5302C109.76 21.1872 109.985 20.9221 110.273 20.7351C110.562 20.546 110.895 20.4515 111.273 20.4515C111.565 20.4515 111.797 20.5002 111.969 20.5977C112.142 20.6932 112.275 20.8023 112.366 20.9251C112.46 21.0459 112.532 21.1453 112.582 21.2232H112.653V20.51H113.319V25.1286C113.319 25.5145 113.231 25.8282 113.056 26.0699C112.883 26.3135 112.649 26.4918 112.354 26.6048C112.062 26.7198 111.737 26.7773 111.378 26.7773ZM111.355 24.3101C111.631 24.3101 111.865 24.2468 112.056 24.1201C112.247 23.9934 112.392 23.8112 112.492 23.5735C112.591 23.3357 112.641 23.0512 112.641 22.7199C112.641 22.3964 112.592 22.1109 112.495 21.8634C112.397 21.6159 112.253 21.422 112.062 21.2817C111.871 21.1414 111.635 21.0712 111.355 21.0712C111.062 21.0712 110.819 21.1453 110.624 21.2934C110.431 21.4415 110.286 21.6403 110.188 21.8897C110.093 22.1392 110.045 22.4159 110.045 22.7199C110.045 23.0317 110.094 23.3075 110.191 23.5472C110.291 23.7849 110.437 23.972 110.63 24.1084C110.825 24.2429 111.066 24.3101 111.355 24.3101ZM118.658 26.6838C118.542 26.6838 118.437 26.674 118.346 26.6545C118.254 26.637 118.191 26.6194 118.156 26.6019L118.331 25.9939C118.499 26.0368 118.647 26.0523 118.775 26.0407C118.904 26.029 119.018 25.9715 119.117 25.8682C119.219 25.7669 119.311 25.6022 119.395 25.3742L119.524 25.0234L117.863 20.51H118.612L119.851 24.088H119.898L121.137 20.51H121.886L119.98 25.6548C119.894 25.8867 119.788 26.0787 119.661 26.2307C119.534 26.3846 119.387 26.4986 119.22 26.5727C119.054 26.6467 118.867 26.6838 118.658 26.6838ZM125.118 25.0935C124.713 25.0935 124.357 24.9971 124.051 24.8041C123.747 24.6112 123.509 24.3413 123.338 23.9944C123.168 23.6475 123.084 23.2422 123.084 22.7784C123.084 22.3107 123.168 21.9024 123.338 21.5536C123.509 21.2047 123.747 20.9338 124.051 20.7409C124.357 20.548 124.713 20.4515 125.118 20.4515C125.523 20.4515 125.878 20.548 126.182 20.7409C126.488 20.9338 126.726 21.2047 126.895 21.5536C127.067 21.9024 127.153 22.3107 127.153 22.7784C127.153 23.2422 127.067 23.6475 126.895 23.9944C126.726 24.3413 126.488 24.6112 126.182 24.8041C125.878 24.9971 125.523 25.0935 125.118 25.0935ZM125.118 24.4738C125.426 24.4738 125.679 24.3949 125.878 24.237C126.077 24.0792 126.224 23.8716 126.319 23.6144C126.415 23.3572 126.463 23.0785 126.463 22.7784C126.463 22.4783 126.415 22.1986 126.319 21.9394C126.224 21.6802 126.077 21.4707 125.878 21.3109C125.679 21.1511 125.426 21.0712 125.118 21.0712C124.81 21.0712 124.557 21.1511 124.358 21.3109C124.159 21.4707 124.012 21.6802 123.917 21.9394C123.821 22.1986 123.773 22.4783 123.773 22.7784C123.773 23.0785 123.821 23.3572 123.917 23.6144C124.012 23.8716 124.159 24.0792 124.358 24.237C124.557 24.3949 124.81 24.4738 125.118 24.4738ZM131.694 23.1642V20.51H132.384V25H131.694V24.24H131.647C131.542 24.468 131.378 24.6619 131.156 24.8217C130.934 24.9795 130.653 25.0585 130.314 25.0585C130.034 25.0585 129.784 24.9971 129.566 24.8743C129.348 24.7496 129.176 24.5625 129.051 24.313C128.927 24.0617 128.864 23.745 128.864 23.363V20.51H129.554V23.3162C129.554 23.6436 129.646 23.9048 129.829 24.0997C130.014 24.2945 130.25 24.392 130.536 24.392C130.708 24.392 130.882 24.3481 131.06 24.2604C131.239 24.1727 131.389 24.0383 131.51 23.857C131.632 23.6758 131.694 23.4449 131.694 23.1642ZM134.306 25V20.51H134.972V21.1882H135.019C135.101 20.966 135.249 20.7857 135.463 20.6474C135.678 20.509 135.919 20.4398 136.188 20.4398C136.239 20.4398 136.302 20.4408 136.378 20.4427C136.454 20.4447 136.512 20.4476 136.551 20.4515V21.1531C136.527 21.1472 136.474 21.1385 136.39 21.1268C136.308 21.1131 136.221 21.1063 136.13 21.1063C135.912 21.1063 135.717 21.1521 135.545 21.2437C135.376 21.3333 135.241 21.4581 135.142 21.6179C135.044 21.7757 134.996 21.956 134.996 22.1587V25H134.306ZM142.696 25.0935C142.322 25.0935 141.992 24.999 141.705 24.81C141.419 24.619 141.195 24.3501 141.033 24.0032C140.871 23.6544 140.79 23.2422 140.79 22.7667C140.79 22.2951 140.871 21.8858 141.033 21.5389C141.195 21.1921 141.42 20.9241 141.708 20.7351C141.997 20.546 142.33 20.4515 142.708 20.4515C143 20.4515 143.231 20.5002 143.401 20.5977C143.572 20.6932 143.703 20.8023 143.792 20.9251C143.884 21.0459 143.955 21.1453 144.006 21.2232H144.064V19.0133H144.754V25H144.088V24.3101H144.006C143.955 24.392 143.883 24.4953 143.79 24.62C143.696 24.7428 143.563 24.8529 143.389 24.9503C143.216 25.0458 142.985 25.0935 142.696 25.0935ZM142.79 24.4738C143.067 24.4738 143.3 24.4017 143.491 24.2575C143.682 24.1113 143.828 23.9096 143.927 23.6524C144.026 23.3932 144.076 23.0941 144.076 22.755C144.076 22.4198 144.027 22.1265 143.93 21.8751C143.832 21.6218 143.688 21.4249 143.497 21.2846C143.306 21.1424 143.07 21.0712 142.79 21.0712C142.498 21.0712 142.254 21.1463 142.059 21.2963C141.866 21.4444 141.721 21.6461 141.623 21.9014C141.528 22.1548 141.48 22.4393 141.48 22.755C141.48 23.0746 141.529 23.365 141.626 23.6261C141.726 23.8853 141.872 24.0919 142.065 24.2458C142.26 24.3978 142.501 24.4738 142.79 24.4738ZM146.772 25V20.51H147.462V25H146.772ZM147.123 19.7616C146.988 19.7616 146.872 19.7158 146.775 19.6243C146.679 19.5327 146.632 19.4226 146.632 19.2939C146.632 19.1653 146.679 19.0552 146.775 18.9636C146.872 18.872 146.988 18.8262 147.123 18.8262C147.257 18.8262 147.372 18.872 147.468 18.9636C147.565 19.0552 147.614 19.1653 147.614 19.2939C147.614 19.4226 147.565 19.5327 147.468 19.6243C147.372 19.7158 147.257 19.7616 147.123 19.7616ZM151.196 26.7773C150.863 26.7773 150.577 26.7344 150.337 26.6487C150.097 26.5649 149.898 26.4538 149.738 26.3154C149.58 26.179 149.454 26.0329 149.361 25.877L149.91 25.4911C149.973 25.5729 150.051 25.6665 150.147 25.7717C150.242 25.8789 150.373 25.9715 150.539 26.0494C150.706 26.1293 150.926 26.1693 151.196 26.1693C151.559 26.1693 151.858 26.0816 152.094 25.9062C152.33 25.7308 152.448 25.456 152.448 25.0818V24.1698H152.389C152.338 24.2517 152.266 24.353 152.173 24.4738C152.081 24.5927 151.949 24.6989 151.775 24.7925C151.604 24.884 151.372 24.9298 151.079 24.9298C150.717 24.9298 150.392 24.8441 150.103 24.6726C149.817 24.5011 149.59 24.2517 149.422 23.9243C149.256 23.5969 149.174 23.1993 149.174 22.7316C149.174 22.2717 149.254 21.8712 149.416 21.5302C149.578 21.1872 149.803 20.9221 150.091 20.7351C150.38 20.546 150.713 20.4515 151.091 20.4515C151.383 20.4515 151.615 20.5002 151.787 20.5977C151.96 20.6932 152.093 20.8023 152.184 20.9251C152.278 21.0459 152.35 21.1453 152.401 21.2232H152.471V20.51H153.137V25.1286C153.137 25.5145 153.05 25.8282 152.874 26.0699C152.701 26.3135 152.467 26.4918 152.173 26.6048C151.88 26.7198 151.555 26.7773 151.196 26.7773ZM151.173 24.3101C151.45 24.3101 151.684 24.2468 151.875 24.1201C152.066 23.9934 152.211 23.8112 152.31 23.5735C152.41 23.3357 152.459 23.0512 152.459 22.7199C152.459 22.3964 152.41 22.1109 152.313 21.8634C152.216 21.6159 152.071 21.422 151.88 21.2817C151.689 21.1414 151.454 21.0712 151.173 21.0712C150.881 21.0712 150.637 21.1453 150.442 21.2934C150.249 21.4415 150.104 21.6403 150.007 21.8897C149.911 22.1392 149.863 22.4159 149.863 22.7199C149.863 23.0317 149.912 23.3075 150.01 23.5472C150.109 23.7849 150.255 23.972 150.448 24.1084C150.643 24.2429 150.885 24.3101 151.173 24.3101ZM155.059 25V20.51H155.749V25H155.059ZM155.41 19.7616C155.275 19.7616 155.159 19.7158 155.062 19.6243C154.966 19.5327 154.918 19.4226 154.918 19.2939C154.918 19.1653 154.966 19.0552 155.062 18.9636C155.159 18.872 155.275 18.8262 155.41 18.8262C155.544 18.8262 155.659 18.872 155.754 18.9636C155.852 19.0552 155.901 19.1653 155.901 19.2939C155.901 19.4226 155.852 19.5327 155.754 19.6243C155.659 19.7158 155.544 19.7616 155.41 19.7616ZM159.623 20.51V21.0946H157.297V20.51H159.623ZM157.975 19.4342H158.665V23.7138C158.665 23.9087 158.693 24.0548 158.749 24.1523C158.808 24.2478 158.882 24.3121 158.972 24.3452C159.063 24.3764 159.16 24.392 159.261 24.392C159.337 24.392 159.399 24.3881 159.448 24.3803C159.497 24.3705 159.536 24.3627 159.565 24.3569L159.705 24.9766C159.658 24.9942 159.593 25.0117 159.509 25.0292C159.426 25.0487 159.319 25.0585 159.191 25.0585C158.996 25.0585 158.805 25.0166 158.618 24.9328C158.433 24.849 158.279 24.7213 158.156 24.5498C158.035 24.3783 157.975 24.162 157.975 23.9009V19.4342ZM162.641 25.1052C162.356 25.1052 162.098 25.0516 161.866 24.9445C161.634 24.8353 161.45 24.6784 161.314 24.4738C161.177 24.2673 161.109 24.0178 161.109 23.7255C161.109 23.4682 161.16 23.2597 161.261 23.0999C161.363 22.9382 161.498 22.8115 161.668 22.7199C161.837 22.6283 162.024 22.5601 162.229 22.5153C162.435 22.4685 162.643 22.4315 162.851 22.4042C163.124 22.3691 163.345 22.3428 163.515 22.3253C163.686 22.3058 163.811 22.2736 163.889 22.2288C163.969 22.184 164.009 22.106 164.009 21.995V21.9716C164.009 21.6832 163.93 21.459 163.772 21.2992C163.616 21.1394 163.38 21.0595 163.062 21.0595C162.733 21.0595 162.474 21.1316 162.287 21.2759C162.1 21.4201 161.969 21.574 161.893 21.7377L161.238 21.5039C161.355 21.231 161.511 21.0186 161.706 20.8666C161.902 20.7127 162.117 20.6055 162.349 20.5451C162.582 20.4827 162.812 20.4515 163.039 20.4515C163.183 20.4515 163.348 20.4691 163.535 20.5041C163.724 20.5373 163.907 20.6064 164.082 20.7117C164.259 20.8169 164.407 20.9757 164.523 21.1882C164.64 21.4006 164.699 21.6851 164.699 22.0417V25H164.009V24.392H163.974C163.927 24.4894 163.849 24.5937 163.74 24.7048C163.631 24.8158 163.486 24.9104 163.305 24.9883C163.123 25.0663 162.902 25.1052 162.641 25.1052ZM162.746 24.4855C163.019 24.4855 163.249 24.4319 163.436 24.3247C163.625 24.2176 163.767 24.0792 163.863 23.9096C163.96 23.7401 164.009 23.5618 164.009 23.3747V22.7433C163.98 22.7784 163.915 22.8105 163.816 22.8398C163.719 22.867 163.606 22.8914 163.477 22.9128C163.35 22.9323 163.227 22.9499 163.106 22.9655C162.987 22.9791 162.89 22.9908 162.816 23.0005C162.637 23.0239 162.469 23.0619 162.314 23.1145C162.16 23.1652 162.035 23.2422 161.939 23.3455C161.846 23.4468 161.799 23.5852 161.799 23.7606C161.799 24.0003 161.888 24.1815 162.065 24.3043C162.244 24.4251 162.471 24.4855 162.746 24.4855ZM167.306 19.0133V25H166.617V19.0133H167.306ZM173.22 25L171.851 20.51H172.576L173.547 23.9477H173.594L174.552 20.51H175.289L176.236 23.936H176.283L177.254 20.51H177.978L176.61 25H175.932L174.95 21.5506H174.88L173.898 25H173.22ZM181.22 25.0935C180.815 25.0935 180.459 24.9971 180.153 24.8041C179.849 24.6112 179.612 24.3413 179.44 23.9944C179.271 23.6475 179.186 23.2422 179.186 22.7784C179.186 22.3107 179.271 21.9024 179.44 21.5536C179.612 21.2047 179.849 20.9338 180.153 20.7409C180.459 20.548 180.815 20.4515 181.22 20.4515C181.626 20.4515 181.98 20.548 182.284 20.7409C182.59 20.9338 182.828 21.2047 182.998 21.5536C183.169 21.9024 183.255 22.3107 183.255 22.7784C183.255 23.2422 183.169 23.6475 182.998 23.9944C182.828 24.3413 182.59 24.6112 182.284 24.8041C181.98 24.9971 181.626 25.0935 181.22 25.0935ZM181.22 24.4738C181.528 24.4738 181.782 24.3949 181.98 24.237C182.179 24.0792 182.326 23.8716 182.422 23.6144C182.517 23.3572 182.565 23.0785 182.565 22.7784C182.565 22.4783 182.517 22.1986 182.422 21.9394C182.326 21.6802 182.179 21.4707 181.98 21.3109C181.782 21.1511 181.528 21.0712 181.22 21.0712C180.912 21.0712 180.659 21.1511 180.46 21.3109C180.262 21.4707 180.114 21.6802 180.019 21.9394C179.923 22.1986 179.876 22.4783 179.876 22.7784C179.876 23.0785 179.923 23.3572 180.019 23.6144C180.114 23.8716 180.262 24.0792 180.46 24.237C180.659 24.3949 180.912 24.4738 181.22 24.4738ZM184.967 25V20.51H185.633V21.1882H185.68C185.762 20.966 185.91 20.7857 186.124 20.6474C186.338 20.509 186.58 20.4398 186.849 20.4398C186.9 20.4398 186.963 20.4408 187.039 20.4427C187.115 20.4447 187.173 20.4476 187.212 20.4515V21.1531C187.188 21.1472 187.135 21.1385 187.051 21.1268C186.969 21.1131 186.882 21.1063 186.791 21.1063C186.572 21.1063 186.377 21.1521 186.206 21.2437C186.036 21.3333 185.902 21.4581 185.803 21.6179C185.705 21.7757 185.656 21.956 185.656 22.1587V25H184.967ZM189.378 19.0133V25H188.688V19.0133H189.378ZM192.995 25.0935C192.621 25.0935 192.291 24.999 192.004 24.81C191.718 24.619 191.494 24.3501 191.332 24.0032C191.17 23.6544 191.089 23.2422 191.089 22.7667C191.089 22.2951 191.17 21.8858 191.332 21.5389C191.494 21.1921 191.719 20.9241 192.007 20.7351C192.296 20.546 192.629 20.4515 193.007 20.4515C193.299 20.4515 193.53 20.5002 193.7 20.5977C193.871 20.6932 194.002 20.8023 194.091 20.9251C194.183 21.0459 194.254 21.1453 194.305 21.2232H194.363V19.0133H195.053V25H194.387V24.3101H194.305C194.254 24.392 194.182 24.4953 194.089 24.62C193.995 24.7428 193.861 24.8529 193.688 24.9503C193.515 25.0458 193.284 25.0935 192.995 25.0935ZM193.089 24.4738C193.366 24.4738 193.599 24.4017 193.79 24.2575C193.981 24.1113 194.127 23.9096 194.226 23.6524C194.325 23.3932 194.375 23.0941 194.375 22.755C194.375 22.4198 194.326 22.1265 194.229 21.8751C194.131 21.6218 193.987 21.4249 193.796 21.2846C193.605 21.1424 193.369 21.0712 193.089 21.0712C192.796 21.0712 192.553 21.1463 192.358 21.2963C192.165 21.4444 192.02 21.6461 191.922 21.9014C191.827 22.1548 191.779 22.4393 191.779 22.755C191.779 23.0746 191.828 23.365 191.925 23.6261C192.025 23.8853 192.171 24.0919 192.364 24.2458C192.559 24.3978 192.8 24.4738 193.089 24.4738Z" fill="#46484C"/>
</svg>
