<svg width="16" height="16" viewBox="0 0 16 16" fill="none" xmlns="http://www.w3.org/2000/svg">
<rect width="16" height="16" fill="white"/>
<path d="M2.68776 11V6.15097H4.2143V11H2.68776ZM5.79074 11V8.16641C5.79074 7.9203 5.71424 7.73073 5.56126 7.59769C5.41492 7.45801 5.232 7.38817 5.0125 7.38817C4.85951 7.38817 4.72315 7.42143 4.60342 7.48794C4.48369 7.54781 4.38725 7.63428 4.31408 7.74736C4.24756 7.86043 4.2143 8.00012 4.2143 8.16641L3.62563 7.90699C3.62563 7.5212 3.70878 7.19195 3.87507 6.91923C4.04136 6.63986 4.26752 6.42701 4.55354 6.28067C4.83956 6.12769 5.16216 6.05119 5.52135 6.05119C5.86058 6.05119 6.16323 6.12769 6.42929 6.28067C6.70201 6.43366 6.91819 6.64651 7.07783 6.91923C7.23747 7.19195 7.31729 7.51787 7.31729 7.89702V11H5.79074ZM8.89372 11V8.16641C8.89372 7.9203 8.81723 7.73073 8.66424 7.59769C8.5179 7.45801 8.33499 7.38817 8.11548 7.38817C7.96249 7.38817 7.82614 7.42143 7.70641 7.48794C7.58668 7.54781 7.49023 7.63428 7.41706 7.74736C7.35054 7.86043 7.31729 8.00012 7.31729 8.16641L6.43927 8.04668C6.45258 7.63428 6.54902 7.28174 6.72862 6.98907C6.91486 6.68975 7.15765 6.46027 7.45697 6.30063C7.76295 6.13434 8.1055 6.05119 8.48465 6.05119C8.85714 6.05119 9.18639 6.13101 9.47241 6.29065C9.76508 6.44364 9.99457 6.66647 10.1609 6.95914C10.3338 7.24516 10.4203 7.59104 10.4203 7.99679V11H8.89372Z" fill="black"/>
<path d="M12.3564 11.1098C12.0969 11.1098 11.8808 11.02 11.7078 10.8404C11.5349 10.6608 11.4484 10.4446 11.4484 10.1918C11.4484 9.92576 11.5349 9.70626 11.7078 9.53332C11.8808 9.35372 12.0969 9.26393 12.3564 9.26393C12.6224 9.26393 12.8386 9.35372 13.0049 9.53332C13.1778 9.70626 13.2643 9.92576 13.2643 10.1918C13.2643 10.4446 13.1778 10.6608 13.0049 10.8404C12.8386 11.02 12.6224 11.1098 12.3564 11.1098Z" fill="#46484C"/>
</svg>
