<svg width="12" height="6" viewBox="0 0 12 6" fill="none" xmlns="http://www.w3.org/2000/svg">
<path d="M0.687756 5V0.150966H2.2143V5H0.687756ZM3.79074 5V2.16641C3.79074 1.9203 3.71424 1.73073 3.56126 1.59769C3.41492 1.45801 3.232 1.38817 3.0125 1.38817C2.85951 1.38817 2.72315 1.42143 2.60342 1.48794C2.48369 1.54781 2.38725 1.63428 2.31408 1.74736C2.24756 1.86043 2.2143 2.00012 2.2143 2.16641L1.62563 1.90699C1.62563 1.5212 1.70878 1.19195 1.87507 0.919229C2.04136 0.63986 2.26752 0.427008 2.55354 0.280673C2.83956 0.127685 3.16216 0.0511915 3.52135 0.0511915C3.86058 0.0511915 4.16323 0.127685 4.42929 0.280673C4.70201 0.43366 4.91819 0.646512 5.07783 0.919229C5.23747 1.19195 5.31729 1.51787 5.31729 1.89702V5H3.79074ZM6.89372 5V2.16641C6.89372 1.9203 6.81723 1.73073 6.66424 1.59769C6.5179 1.45801 6.33499 1.38817 6.11548 1.38817C5.96249 1.38817 5.82614 1.42143 5.70641 1.48794C5.58668 1.54781 5.49023 1.63428 5.41706 1.74736C5.35054 1.86043 5.31729 2.00012 5.31729 2.16641L4.43927 2.04668C4.45258 1.63428 4.54902 1.28174 4.72862 0.989071C4.91486 0.689747 5.15765 0.460266 5.45697 0.300627C5.76295 0.134337 6.1055 0.0511915 6.48465 0.0511915C6.85714 0.0511915 7.18639 0.131011 7.47241 0.29065C7.76508 0.443637 7.99457 0.666467 8.16086 0.959138C8.3338 1.24516 8.42027 1.59104 8.42027 1.99679V5H6.89372Z" fill="black"/>
<path d="M10.3564 5.10975C10.0969 5.10975 9.88077 5.01995 9.70783 4.84036C9.53488 4.66077 9.44841 4.44459 9.44841 4.19183C9.44841 3.92576 9.53488 3.70626 9.70783 3.53332C9.88077 3.35372 10.0969 3.26393 10.3564 3.26393C10.6224 3.26393 10.8386 3.35372 11.0049 3.53332C11.1778 3.70626 11.2643 3.92576 11.2643 4.19183C11.2643 4.44459 11.1778 4.66077 11.0049 4.84036C10.8386 5.01995 10.6224 5.10975 10.3564 5.10975Z" fill="#46484C"/>
</svg>
