<svg width="160" height="160" viewBox="0 0 160 160" fill="none" xmlns="http://www.w3.org/2000/svg">
<rect width="160" height="160" fill="white"/>
<path d="M54.8329 74V51.044H62.0597V74H54.8329ZM69.5228 74V60.5854C69.5228 59.4203 69.1607 58.5228 68.4364 57.893C67.7436 57.2318 66.8777 56.9011 65.8385 56.9011C65.1142 56.9011 64.4687 57.0586 63.9019 57.3735C63.3351 57.6569 62.8785 58.0662 62.5321 58.6016C62.2172 59.1369 62.0597 59.7982 62.0597 60.5854L59.2729 59.3573C59.2729 57.5309 59.6665 55.9722 60.4538 54.6811C61.241 53.3585 62.3117 52.3509 63.6657 51.6581C65.0198 50.9338 66.547 50.5717 68.2475 50.5717C69.8534 50.5717 71.2862 50.9338 72.5458 51.6581C73.8369 52.3824 74.8603 53.39 75.616 54.6811C76.3718 55.9722 76.7497 57.5152 76.7497 59.3101V74H69.5228ZM84.2127 74V60.5854C84.2127 59.4203 83.8506 58.5228 83.1263 57.893C82.4335 57.2318 81.5676 56.9011 80.5284 56.9011C79.8042 56.9011 79.1586 57.0586 78.5918 57.3735C78.025 57.6569 77.5684 58.0662 77.222 58.6016C76.9071 59.1369 76.7497 59.7982 76.7497 60.5854L72.593 60.0186C72.656 58.0662 73.1126 56.3973 73.9628 55.0117C74.8445 53.5947 75.9939 52.5083 77.4109 51.7526C78.8595 50.9653 80.4812 50.5717 82.2761 50.5717C84.0395 50.5717 85.5982 50.9496 86.9523 51.7053C88.3378 52.4296 89.4242 53.4845 90.2115 54.87C91.0302 56.2241 91.4396 57.8616 91.4396 59.7824V74H84.2127Z" fill="black"/>
<path d="M100.605 74.5196C99.3772 74.5196 98.3538 74.0945 97.535 73.2442C96.7163 72.394 96.3069 71.3706 96.3069 70.174C96.3069 68.9144 96.7163 67.8753 97.535 67.0565C98.3538 66.2063 99.3772 65.7812 100.605 65.7812C101.865 65.7812 102.888 66.2063 103.676 67.0565C104.494 67.8753 104.904 68.9144 104.904 70.174C104.904 71.3706 104.494 72.394 103.676 73.2442C102.888 74.0945 101.865 74.5196 100.605 74.5196Z" fill="#46484C"/>
<path d="M51.423 90.4283V94.3219C51.423 95.7702 51.5288 96.8453 51.7405 97.5472C51.1612 97.692 50.6822 97.7644 50.3034 97.7644C49.3007 97.7644 48.7994 97.3467 48.7994 96.5111C48.7994 96.3774 48.7994 96.071 48.7994 95.592C48.8105 95.1129 48.8161 94.4111 48.8161 93.4864C48.8272 92.5506 48.8328 91.6482 48.8328 90.7792C47.8413 93.5755 47.1784 95.8427 46.8442 97.5806C46.5322 97.692 46.1535 97.7477 45.7078 97.7477C44.7943 97.7477 44.254 97.5416 44.0869 97.1294C43.8752 96.6169 43.5465 95.5976 43.1009 94.0713C42.6553 92.5339 42.2932 91.4086 42.0147 90.6956V94.3219C42.0147 95.8259 42.1205 96.9289 42.3322 97.6307C41.9311 97.7199 41.5412 97.7644 41.1624 97.7644C40.2155 97.7644 39.742 97.4469 39.742 96.8119C39.742 96.6336 39.7475 96.1936 39.7587 95.4917C39.7698 94.7899 39.7754 94.244 39.7754 93.854V89.6428C39.7754 88.3951 39.6696 87.4147 39.4579 86.7017C40.1597 86.6014 40.7168 86.5513 41.129 86.5513C42.1428 86.5513 42.8001 86.8855 43.1009 87.554C43.4351 88.3004 43.7582 89.1638 44.0701 90.1442C44.3932 91.1134 44.6383 91.91 44.8054 92.5339C44.9837 93.1466 45.2566 94.1326 45.6243 95.4917C46.2481 92.5283 47.1227 89.8211 48.2479 87.3701C48.3927 87.0582 48.6267 86.8465 48.9498 86.7351C49.2729 86.6237 49.6962 86.568 50.2198 86.568C50.8103 86.568 51.3116 86.6126 51.7238 86.7017C51.5233 87.3701 51.423 88.6123 51.423 90.4283ZM59.4993 92.9015C59.321 92.2888 59.1094 91.5033 58.8643 90.5452C58.6192 89.576 58.4743 89.0134 58.4298 88.8574C57.7391 91.2638 57.3491 92.6118 57.26 92.9015C57.7948 92.9238 58.2181 92.9349 58.5301 92.9349C58.9645 92.9349 59.2876 92.9238 59.4993 92.9015ZM58.3128 94.5893C57.856 94.5893 57.3603 94.567 56.8255 94.5225C56.068 96.3496 55.6112 97.5138 55.4552 98.0151C55.0653 97.9594 54.7812 97.9148 54.6029 97.8814C54.4247 97.848 54.2186 97.7923 53.9846 97.7143C53.7507 97.6252 53.5891 97.5138 53.5 97.3801C53.4109 97.2464 53.3663 97.0793 53.3663 96.8787C53.3663 96.6448 53.5557 96.0766 53.9345 95.1742C54.3244 94.2718 54.8425 93.0241 55.4886 91.4309C56.1348 89.8378 56.6807 88.2781 57.1263 86.7518C57.6499 86.6738 58.0789 86.6349 58.4131 86.6349C59.3489 86.6349 59.9505 87.0415 60.2179 87.8548C61.0423 90.3948 61.6327 92.1217 61.9892 93.0352C62.8582 95.2968 63.4487 96.7339 63.7606 97.3467C63.237 97.7032 62.719 97.8814 62.2065 97.8814C61.5492 97.8814 61.1258 97.6697 60.9364 97.2464C60.8139 96.9567 60.6468 96.5445 60.4351 96.0098C60.2346 95.475 60.0452 94.9904 59.8669 94.5559C58.998 94.5782 58.4799 94.5893 58.3128 94.5893ZM65.2689 93.854V90.5118C65.2689 89.2863 65.2188 88.0219 65.1185 86.7184C65.5419 86.6293 65.9819 86.5847 66.4387 86.5847C66.862 86.5847 67.2185 86.6571 67.5082 86.802C67.809 86.9468 67.9594 87.1752 67.9594 87.4871C67.9594 87.5428 67.9371 87.994 67.8926 88.8407C67.8591 89.6874 67.8424 90.3948 67.8424 90.963C68.7448 90.328 69.6361 89.5871 70.5162 88.7404C71.3963 87.8938 71.9701 87.1362 72.2374 86.4677C72.7611 86.6349 73.112 86.8131 73.2902 87.0025C73.4685 87.1807 73.5576 87.398 73.5576 87.6542C73.5576 88.3895 72.4045 89.5983 70.0984 91.2805C71.3796 93.2859 72.36 94.6952 73.0396 95.5084C73.3961 95.9206 73.7359 96.1267 74.0589 96.1267C74.0924 96.1267 74.2428 96.11 74.5101 96.0766C74.6104 96.3774 74.6605 96.6281 74.6605 96.8286C74.6605 97.1851 74.4934 97.4525 74.1592 97.6307C73.8361 97.7978 73.4406 97.8814 72.9727 97.8814C72.36 97.8814 71.7528 97.5973 71.1512 97.0291C70.3602 96.2827 69.352 94.8177 68.1265 92.6341C68.1042 92.6453 68.0095 92.7065 67.8424 92.8179V94.3219C67.8424 95.5697 67.9761 96.6392 68.2435 97.5305C67.8313 97.6864 67.3244 97.7644 66.7228 97.7644C66.5 97.7644 66.3161 97.7477 66.1713 97.7143C66.0265 97.692 65.8705 97.6419 65.7034 97.5639C65.5474 97.4748 65.4305 97.3299 65.3525 97.1294C65.2745 96.9177 65.2355 96.6504 65.2355 96.3273C65.2355 96.1156 65.2411 95.7201 65.2522 95.1408C65.2633 94.5503 65.2689 94.1214 65.2689 93.854Z" fill="black"/>
<path d="M80.1461 93.219C80.1461 93.5532 80.0291 93.8206 79.7952 94.0211C79.5723 94.2217 79.2715 94.3219 78.8928 94.3219C78.7702 94.3219 78.5474 94.3052 78.2243 94.2718C77.9012 94.2273 77.6506 94.205 77.4723 94.205C77.049 94.205 76.5699 94.2941 76.0352 94.4723C75.9572 94.0824 75.9182 93.7649 75.9182 93.5198C75.9182 93.219 76.0184 92.9628 76.219 92.7511C76.4195 92.5283 76.737 92.4169 77.1715 92.4169C77.2384 92.4169 77.4333 92.4336 77.7564 92.467C78.0795 92.5004 78.3357 92.5172 78.5251 92.5172H78.6588C79.1378 92.5172 79.5723 92.4336 79.9623 92.2665C80.0848 92.6007 80.1461 92.9182 80.1461 93.219Z" fill="#46484C"/>
<path d="M84.344 94.0713V90.9797C84.344 90.0105 84.3272 89.1248 84.2938 88.3227C82.8678 88.3227 81.8206 88.3561 81.1521 88.4229C81.0964 88.2558 81.0686 87.9829 81.0686 87.6041C81.0686 87.3924 81.1076 87.2197 81.1856 87.0861C81.2636 86.9524 81.3861 86.8577 81.5532 86.802C81.7315 86.7463 81.8986 86.7128 82.0545 86.7017C82.2105 86.6794 82.4222 86.6683 82.6896 86.6683H86.2824C88.1541 86.6683 89.4241 86.646 90.0926 86.6014C90.1483 86.8465 90.1761 87.1028 90.1761 87.3701C90.1761 88.0052 89.7528 88.3227 88.9061 88.3227H87.001C86.9453 89.381 86.9175 90.4116 86.9175 91.4142V94.5392C86.9175 95.6644 87.0512 96.6615 87.3185 97.5305C86.8283 97.6864 86.2936 97.7644 85.7143 97.7644C85.1795 97.7644 84.8119 97.6475 84.6113 97.4135C84.4108 97.1684 84.3105 96.8063 84.3105 96.3273C84.3105 96.1602 84.3161 95.8315 84.3272 95.3413C84.3384 94.8511 84.344 94.4278 84.344 94.0713ZM94.4696 88.3394C94.5141 88.6959 94.5364 89.5537 94.5364 90.9129H95.8566C96.5696 90.9129 97.2269 90.8795 97.8285 90.8126C97.8953 90.9575 97.9288 91.1914 97.9288 91.5145C97.9288 91.9267 97.8341 92.2164 97.6447 92.3835C97.4553 92.5394 97.1155 92.6174 96.6253 92.6174H94.5364C94.5364 94.5002 94.581 95.631 94.6701 96.0098C95.1603 96.032 95.5558 96.0432 95.8566 96.0432C97.6725 96.0432 98.8423 95.9151 99.3659 95.6588C99.4996 95.9931 99.5664 96.3774 99.5664 96.8119C99.5664 97.1907 99.416 97.4413 99.1152 97.5639C98.8256 97.6864 98.2407 97.7477 97.3606 97.7477C94.6979 97.7477 93.155 97.7366 92.7316 97.7143C92.4085 97.7032 92.1913 97.6252 92.0799 97.4803C91.9685 97.3355 91.9128 97.096 91.9128 96.7618C91.9128 96.5835 91.9183 96.1713 91.9295 95.5251C91.9406 94.879 91.9462 94.3609 91.9462 93.971V90.6288C91.9462 89.058 91.8738 87.7601 91.7289 86.7351C93.1661 86.6349 94.6311 86.5847 96.124 86.5847C97.7282 86.5847 98.7699 86.6738 99.2489 86.8521C99.4606 86.9301 99.5664 87.1529 99.5664 87.5205C99.5664 87.955 99.4996 88.3338 99.3659 88.6569C98.6306 88.4229 97.3884 88.306 95.6393 88.306C95.4165 88.306 95.0266 88.3171 94.4696 88.3394ZM109.513 94.7564C110.36 95.1464 110.783 95.6031 110.783 96.1267C110.783 96.4498 110.644 96.7339 110.366 96.979C110.098 97.2241 109.758 97.4079 109.346 97.5305C108.945 97.653 108.561 97.7421 108.193 97.7978C107.825 97.8536 107.491 97.8814 107.19 97.8814C106.466 97.8814 105.776 97.7867 105.118 97.5973C104.461 97.3968 103.832 97.0904 103.23 96.6782C102.639 96.2549 102.166 95.6588 101.81 94.8901C101.453 94.1103 101.275 93.2023 101.275 92.1662C101.275 90.3837 101.804 88.9911 102.862 87.9884C103.921 86.9746 105.358 86.4677 107.174 86.4677C108.143 86.4677 108.956 86.646 109.614 87.0025C110.282 87.3479 110.616 87.7768 110.616 88.2892C110.616 88.6792 110.455 88.9967 110.132 89.2418C109.809 89.4869 109.38 89.6428 108.845 89.7097C108.655 89.1972 108.355 88.8129 107.942 88.5566C107.53 88.2892 107.09 88.1556 106.622 88.1556C105.854 88.1556 105.219 88.5065 104.717 89.2084C104.227 89.9102 103.982 90.7848 103.982 91.832C103.982 93.0686 104.233 94.1047 104.734 94.9403C105.246 95.7758 105.959 96.1936 106.873 96.1936C107.385 96.1936 107.876 96.0766 108.344 95.8427C108.823 95.6087 109.213 95.2466 109.513 94.7564ZM119.087 89.3922C118.909 89.0691 118.58 88.7906 118.101 88.5566C117.622 88.3115 117.16 88.189 116.714 88.189C116.347 88.189 116.046 88.2892 115.812 88.4898C115.589 88.6792 115.478 88.9744 115.478 89.3755C115.478 89.732 115.606 90.0328 115.862 90.2779C116.129 90.523 116.452 90.7068 116.831 90.8293C117.221 90.9407 117.644 91.0856 118.101 91.2638C118.558 91.4421 118.976 91.6315 119.355 91.832C119.744 92.0325 120.068 92.3445 120.324 92.7678C120.591 93.1912 120.725 93.7036 120.725 94.3052C120.725 94.9625 120.597 95.5307 120.341 96.0098C120.095 96.4888 119.756 96.862 119.321 97.1294C118.887 97.3856 118.419 97.575 117.917 97.6976C117.427 97.8201 116.898 97.8814 116.33 97.8814C115.305 97.8814 114.419 97.7366 113.673 97.4469C112.938 97.1573 112.57 96.7785 112.57 96.3106C112.57 95.9652 112.665 95.6867 112.854 95.475C113.043 95.2633 113.366 95.035 113.823 94.7899C114.102 95.1798 114.519 95.5084 115.077 95.7758C115.634 96.032 116.174 96.1602 116.698 96.1602C117.143 96.1602 117.505 96.0543 117.784 95.8427C118.062 95.631 118.202 95.3023 118.202 94.8567C118.202 94.4334 118.018 94.0936 117.65 93.8373C117.294 93.5811 116.859 93.375 116.347 93.219C115.834 93.063 115.322 92.8792 114.809 92.6676C114.297 92.4447 113.857 92.0827 113.489 91.5813C113.132 91.08 112.954 90.4338 112.954 89.6428C112.954 89.0747 113.077 88.5789 113.322 88.1556C113.567 87.7322 113.896 87.4036 114.308 87.1696C114.731 86.9245 115.188 86.7463 115.678 86.6349C116.179 86.5234 116.72 86.4677 117.299 86.4677C118.213 86.4677 118.998 86.6014 119.655 86.8688C120.313 87.1362 120.641 87.5094 120.641 87.9884C120.641 88.2781 120.502 88.5511 120.224 88.8073C119.956 89.0635 119.577 89.2585 119.087 89.3922Z" fill="#212121"/>
<path d="M12.7066 117.429V111.442H16.3197V112.085H13.4316V114.108H16.1326V114.751H13.4316V116.785H16.3665V117.429H12.7066ZM18.1914 117.429V112.939H18.8579V113.64H18.9163C19.0099 113.4 19.1609 113.214 19.3694 113.082C19.5779 112.947 19.8284 112.88 20.1207 112.88C20.4169 112.88 20.6634 112.947 20.8602 113.082C21.059 113.214 21.2139 113.4 21.325 113.64H21.3718C21.4868 113.408 21.6592 113.224 21.8892 113.088C22.1192 112.949 22.3949 112.88 22.7165 112.88C23.1179 112.88 23.4463 113.006 23.7016 113.257C23.9569 113.507 24.0845 113.895 24.0845 114.424V117.429H23.3946V114.424C23.3946 114.092 23.304 113.855 23.1228 113.713C22.9416 113.571 22.7282 113.5 22.4826 113.5C22.1669 113.5 21.9223 113.595 21.7489 113.786C21.5754 113.975 21.4887 114.215 21.4887 114.505V117.429H20.7872V114.353C20.7872 114.098 20.7043 113.893 20.5387 113.737C20.373 113.579 20.1596 113.5 19.8985 113.5C19.7192 113.5 19.5516 113.548 19.3957 113.643C19.2418 113.739 19.117 113.871 19.0216 114.041C18.928 114.208 18.8812 114.402 18.8812 114.622V117.429H18.1914ZM26.0044 119.112V112.939H26.6709V113.652H26.7528C26.8034 113.574 26.8736 113.474 26.9632 113.354C27.0548 113.231 27.1854 113.122 27.3549 113.026C27.5264 112.929 27.7583 112.88 28.0506 112.88C28.4287 112.88 28.762 112.975 29.0504 113.164C29.3388 113.353 29.5639 113.621 29.7256 113.968C29.8874 114.314 29.9683 114.724 29.9683 115.195C29.9683 115.671 29.8874 116.083 29.7256 116.432C29.5639 116.779 29.3398 117.048 29.0533 117.239C28.7668 117.428 28.4365 117.522 28.0623 117.522C27.7739 117.522 27.543 117.474 27.3695 117.379C27.1961 117.281 27.0626 117.171 26.9691 117.049C26.8755 116.924 26.8034 116.821 26.7528 116.739H26.6943V119.112H26.0044ZM26.6826 115.184C26.6826 115.523 26.7323 115.822 26.8317 116.081C26.9311 116.338 27.0763 116.54 27.2672 116.686C27.4582 116.83 27.6921 116.902 27.9688 116.902C28.2572 116.902 28.4979 116.826 28.6908 116.674C28.8857 116.52 29.0319 116.314 29.1293 116.055C29.2287 115.794 29.2784 115.503 29.2784 115.184C29.2784 114.868 29.2297 114.583 29.1322 114.33C29.0367 114.075 28.8916 113.873 28.6967 113.725C28.5037 113.575 28.2611 113.5 27.9688 113.5C27.6882 113.5 27.4524 113.571 27.2614 113.713C27.0704 113.854 26.9262 114.05 26.8288 114.304C26.7313 114.555 26.6826 114.848 26.6826 115.184ZM33.5032 117.522C33.0979 117.522 32.7422 117.426 32.4363 117.233C32.1322 117.04 31.8945 116.77 31.723 116.423C31.5535 116.076 31.4687 115.671 31.4687 115.207C31.4687 114.739 31.5535 114.331 31.723 113.982C31.8945 113.633 32.1322 113.362 32.4363 113.169C32.7422 112.977 33.0979 112.88 33.5032 112.88C33.9086 112.88 34.2632 112.977 34.5673 113.169C34.8732 113.362 35.111 113.633 35.2805 113.982C35.452 114.331 35.5378 114.739 35.5378 115.207C35.5378 115.671 35.452 116.076 35.2805 116.423C35.111 116.77 34.8732 117.04 34.5673 117.233C34.2632 117.426 33.9086 117.522 33.5032 117.522ZM33.5032 116.902C33.8111 116.902 34.0645 116.823 34.2632 116.666C34.462 116.508 34.6092 116.3 34.7047 116.043C34.8001 115.786 34.8479 115.507 34.8479 115.207C34.8479 114.907 34.8001 114.627 34.7047 114.368C34.6092 114.109 34.462 113.899 34.2632 113.74C34.0645 113.58 33.8111 113.5 33.5032 113.5C33.1953 113.5 32.942 113.58 32.7432 113.74C32.5444 113.899 32.3973 114.109 32.3018 114.368C32.2063 114.627 32.1586 114.907 32.1586 115.207C32.1586 115.507 32.2063 115.786 32.3018 116.043C32.3973 116.3 32.5444 116.508 32.7432 116.666C32.942 116.823 33.1953 116.902 33.5032 116.902ZM38.1139 117.429L36.7459 112.939H37.4708L38.4413 116.376H38.4881L39.4469 112.939H40.1835L41.1306 116.365H41.1774L42.1479 112.939H42.8729L41.5048 117.429H40.8266L39.8444 113.979H39.7743L38.7921 117.429H38.1139ZM46.1732 117.522C45.7406 117.522 45.3674 117.427 45.0537 117.236C44.7418 117.043 44.5012 116.774 44.3316 116.429C44.164 116.082 44.0802 115.679 44.0802 115.219C44.0802 114.759 44.164 114.353 44.3316 114.003C44.5012 113.65 44.737 113.375 45.039 113.178C45.3431 112.979 45.6977 112.88 46.1031 112.88C46.3369 112.88 46.5679 112.919 46.7959 112.997C47.0239 113.075 47.2314 113.202 47.4185 113.377C47.6056 113.55 47.7547 113.78 47.8658 114.067C47.9768 114.353 48.0324 114.706 48.0324 115.125V115.417H44.5713V114.821H47.3308C47.3308 114.568 47.2802 114.342 47.1788 114.143C47.0794 113.944 46.9372 113.787 46.752 113.672C46.5688 113.557 46.3525 113.5 46.1031 113.5C45.8283 113.5 45.5905 113.568 45.3898 113.704C45.191 113.839 45.0381 114.014 44.9309 114.231C44.8237 114.447 44.7701 114.679 44.7701 114.926V115.324C44.7701 115.663 44.8286 115.95 44.9455 116.186C45.0644 116.42 45.229 116.598 45.4395 116.721C45.65 116.842 45.8946 116.902 46.1732 116.902C46.3545 116.902 46.5182 116.877 46.6643 116.826C46.8124 116.774 46.9401 116.696 47.0473 116.593C47.1545 116.487 47.2373 116.357 47.2957 116.201L47.9622 116.388C47.8921 116.614 47.7742 116.813 47.6085 116.984C47.4429 117.154 47.2383 117.286 46.9947 117.382C46.7511 117.475 46.4773 117.522 46.1732 117.522ZM49.7403 117.429V112.939H50.4068V113.617H50.4536C50.5355 113.395 50.6836 113.214 50.8979 113.076C51.1123 112.938 51.354 112.868 51.6229 112.868C51.6736 112.868 51.7369 112.869 51.8129 112.871C51.8889 112.873 51.9464 112.876 51.9854 112.88V113.582C51.962 113.576 51.9084 113.567 51.8246 113.555C51.7427 113.542 51.656 113.535 51.5644 113.535C51.3462 113.535 51.1513 113.581 50.9798 113.672C50.8102 113.762 50.6758 113.887 50.5764 114.046C50.4789 114.204 50.4302 114.385 50.4302 114.587V117.429H49.7403ZM53.4617 117.429V112.939H54.1515V117.429H53.4617ZM53.8124 112.19C53.678 112.19 53.562 112.144 53.4646 112.053C53.3691 111.961 53.3213 111.851 53.3213 111.723C53.3213 111.594 53.3691 111.484 53.4646 111.392C53.562 111.301 53.678 111.255 53.8124 111.255C53.9469 111.255 54.0619 111.301 54.1574 111.392C54.2548 111.484 54.3035 111.594 54.3035 111.723C54.3035 111.851 54.2548 111.961 54.1574 112.053C54.0619 112.144 53.9469 112.19 53.8124 112.19ZM56.7635 114.728V117.429H56.0736V112.939H56.7401V113.64H56.7986C56.9038 113.412 57.0636 113.229 57.278 113.091C57.4923 112.95 57.7691 112.88 58.1082 112.88C58.4122 112.88 58.6782 112.942 58.9062 113.067C59.1342 113.19 59.3115 113.377 59.4382 113.628C59.5649 113.878 59.6282 114.194 59.6282 114.576V117.429H58.9383V114.622C58.9383 114.27 58.8468 113.995 58.6636 113.798C58.4804 113.599 58.229 113.5 57.9094 113.5C57.6892 113.5 57.4923 113.548 57.3189 113.643C57.1474 113.739 57.012 113.878 56.9126 114.061C56.8132 114.244 56.7635 114.466 56.7635 114.728ZM63.3598 119.206C63.0265 119.206 62.74 119.163 62.5003 119.077C62.2606 118.993 62.0609 118.882 61.9011 118.744C61.7432 118.608 61.6175 118.461 61.524 118.306L62.0736 117.92C62.1359 118.002 62.2148 118.095 62.3103 118.2C62.4058 118.307 62.5364 118.4 62.702 118.478C62.8696 118.558 63.0889 118.598 63.3598 118.598C63.7222 118.598 64.0214 118.51 64.2572 118.335C64.493 118.159 64.6109 117.885 64.6109 117.51V116.598H64.5524C64.5018 116.68 64.4297 116.782 64.3361 116.902C64.2445 117.021 64.112 117.128 63.9386 117.221C63.7671 117.313 63.5352 117.358 63.2428 117.358C62.8804 117.358 62.5549 117.273 62.2665 117.101C61.98 116.93 61.753 116.68 61.5854 116.353C61.4197 116.025 61.3369 115.628 61.3369 115.16C61.3369 114.7 61.4178 114.3 61.5795 113.959C61.7413 113.616 61.9664 113.351 62.2548 113.164C62.5432 112.975 62.8765 112.88 63.2545 112.88C63.5468 112.88 63.7788 112.929 63.9503 113.026C64.1237 113.122 64.2562 113.231 64.3478 113.354C64.4413 113.474 64.5135 113.574 64.5641 113.652H64.6343V112.939H65.3008V117.557C65.3008 117.943 65.2131 118.257 65.0377 118.498C64.8642 118.742 64.6304 118.92 64.3361 119.033C64.0438 119.148 63.7183 119.206 63.3598 119.206ZM63.3364 116.739C63.6131 116.739 63.847 116.675 64.0379 116.549C64.2289 116.422 64.3741 116.24 64.4735 116.002C64.5729 115.764 64.6226 115.48 64.6226 115.148C64.6226 114.825 64.5739 114.54 64.4764 114.292C64.379 114.045 64.2348 113.851 64.0438 113.71C63.8528 113.57 63.617 113.5 63.3364 113.5C63.0441 113.5 62.8005 113.574 62.6056 113.722C62.4127 113.87 62.2675 114.069 62.17 114.318C62.0745 114.568 62.0268 114.844 62.0268 115.148C62.0268 115.46 62.0755 115.736 62.1729 115.976C62.2723 116.214 62.4185 116.401 62.6114 116.537C62.8063 116.671 63.048 116.739 63.3364 116.739ZM70.6401 119.112C70.5232 119.112 70.419 119.103 70.3274 119.083C70.2358 119.066 70.1724 119.048 70.1374 119.03L70.3128 118.422C70.4803 118.465 70.6285 118.481 70.7571 118.469C70.8857 118.458 70.9997 118.4 71.0991 118.297C71.2004 118.195 71.293 118.031 71.3768 117.803L71.5054 117.452L69.845 112.939H70.5934L71.8328 116.517H71.8796L73.119 112.939H73.8674L71.9614 118.083C71.8757 118.315 71.7695 118.507 71.6428 118.659C71.5161 118.813 71.369 118.927 71.2014 119.001C71.0358 119.075 70.8487 119.112 70.6401 119.112ZM77.0998 117.522C76.6944 117.522 76.3388 117.426 76.0328 117.233C75.7288 117.04 75.491 116.77 75.3195 116.423C75.15 116.076 75.0652 115.671 75.0652 115.207C75.0652 114.739 75.15 114.331 75.3195 113.982C75.491 113.633 75.7288 113.362 76.0328 113.169C76.3388 112.977 76.6944 112.88 77.0998 112.88C77.5051 112.88 77.8598 112.977 78.1638 113.169C78.4698 113.362 78.7075 113.633 78.8771 113.982C79.0486 114.331 79.1343 114.739 79.1343 115.207C79.1343 115.671 79.0486 116.076 78.8771 116.423C78.7075 116.77 78.4698 117.04 78.1638 117.233C77.8598 117.426 77.5051 117.522 77.0998 117.522ZM77.0998 116.902C77.4077 116.902 77.661 116.823 77.8598 116.666C78.0586 116.508 78.2057 116.3 78.3012 116.043C78.3967 115.786 78.4444 115.507 78.4444 115.207C78.4444 114.907 78.3967 114.627 78.3012 114.368C78.2057 114.109 78.0586 113.899 77.8598 113.74C77.661 113.58 77.4077 113.5 77.0998 113.5C76.7918 113.5 76.5385 113.58 76.3397 113.74C76.1409 113.899 75.9938 114.109 75.8983 114.368C75.8028 114.627 75.7551 114.907 75.7551 115.207C75.7551 115.507 75.8028 115.786 75.8983 116.043C75.9938 116.3 76.1409 116.508 76.3397 116.666C76.5385 116.823 76.7918 116.902 77.0998 116.902ZM83.6756 115.593V112.939H84.3654V117.429H83.6756V116.669H83.6288C83.5236 116.897 83.3599 117.09 83.1377 117.25C82.9155 117.408 82.6349 117.487 82.2958 117.487C82.0152 117.487 81.7657 117.426 81.5475 117.303C81.3292 117.178 81.1577 116.991 81.033 116.742C80.9083 116.49 80.8459 116.174 80.8459 115.792V112.939H81.5358V115.745C81.5358 116.072 81.6274 116.333 81.8106 116.528C81.9957 116.723 82.2315 116.821 82.518 116.821C82.6895 116.821 82.8639 116.777 83.0412 116.689C83.2205 116.601 83.3706 116.467 83.4914 116.286C83.6142 116.104 83.6756 115.873 83.6756 115.593ZM86.2875 117.429V112.939H86.954V113.617H87.0008C87.0826 113.395 87.2307 113.214 87.4451 113.076C87.6595 112.938 87.9011 112.868 88.1701 112.868C88.2207 112.868 88.2841 112.869 88.3601 112.871C88.4361 112.873 88.4936 112.876 88.5325 112.88V113.582C88.5091 113.576 88.4556 113.567 88.3718 113.555C88.2899 113.542 88.2032 113.535 88.1116 113.535C87.8933 113.535 87.6984 113.581 87.527 113.672C87.3574 113.762 87.2229 113.887 87.1236 114.046C87.0261 114.204 86.9774 114.385 86.9774 114.587V117.429H86.2875ZM94.678 117.522C94.3038 117.522 93.9735 117.428 93.687 117.239C93.4006 117.048 93.1764 116.779 93.0147 116.432C92.8529 116.083 92.7721 115.671 92.7721 115.195C92.7721 114.724 92.8529 114.314 93.0147 113.968C93.1764 113.621 93.4015 113.353 93.6899 113.164C93.9784 112.975 94.3116 112.88 94.6897 112.88C94.982 112.88 95.2129 112.929 95.3825 113.026C95.554 113.122 95.6845 113.231 95.7742 113.354C95.8658 113.474 95.9369 113.574 95.9876 113.652H96.046V111.442H96.7359V117.429H96.0694V116.739H95.9876C95.9369 116.821 95.8648 116.924 95.7713 117.049C95.6777 117.171 95.5442 117.281 95.3708 117.379C95.1973 117.474 94.9664 117.522 94.678 117.522ZM94.7715 116.902C95.0483 116.902 95.2821 116.83 95.4731 116.686C95.6641 116.54 95.8093 116.338 95.9087 116.081C96.008 115.822 96.0577 115.523 96.0577 115.184C96.0577 114.848 96.009 114.555 95.9116 114.304C95.8141 114.05 95.6699 113.854 95.4789 113.713C95.288 113.571 95.0522 113.5 94.7715 113.5C94.4792 113.5 94.2356 113.575 94.0407 113.725C93.8478 113.873 93.7026 114.075 93.6052 114.33C93.5097 114.583 93.4619 114.868 93.4619 115.184C93.4619 115.503 93.5107 115.794 93.6081 116.055C93.7075 116.314 93.8536 116.52 94.0466 116.674C94.2415 116.826 94.4831 116.902 94.7715 116.902ZM98.7537 117.429V112.939H99.4436V117.429H98.7537ZM99.1045 112.19C98.9701 112.19 98.8541 112.144 98.7567 112.053C98.6612 111.961 98.6134 111.851 98.6134 111.723C98.6134 111.594 98.6612 111.484 98.7567 111.392C98.8541 111.301 98.9701 111.255 99.1045 111.255C99.239 111.255 99.354 111.301 99.4495 111.392C99.5469 111.484 99.5956 111.594 99.5956 111.723C99.5956 111.851 99.5469 111.961 99.4495 112.053C99.354 112.144 99.239 112.19 99.1045 112.19ZM103.178 119.206C102.845 119.206 102.558 119.163 102.319 119.077C102.079 118.993 101.879 118.882 101.719 118.744C101.562 118.608 101.436 118.461 101.342 118.306L101.892 117.92C101.954 118.002 102.033 118.095 102.129 118.2C102.224 118.307 102.355 118.4 102.52 118.478C102.688 118.558 102.907 118.598 103.178 118.598C103.541 118.598 103.84 118.51 104.075 118.335C104.311 118.159 104.429 117.885 104.429 117.51V116.598H104.371C104.32 116.68 104.248 116.782 104.154 116.902C104.063 117.021 103.93 117.128 103.757 117.221C103.585 117.313 103.353 117.358 103.061 117.358C102.699 117.358 102.373 117.273 102.085 117.101C101.798 116.93 101.571 116.68 101.404 116.353C101.238 116.025 101.155 115.628 101.155 115.16C101.155 114.7 101.236 114.3 101.398 113.959C101.56 113.616 101.785 113.351 102.073 113.164C102.362 112.975 102.695 112.88 103.073 112.88C103.365 112.88 103.597 112.929 103.769 113.026C103.942 113.122 104.075 113.231 104.166 113.354C104.26 113.474 104.332 113.574 104.382 113.652H104.453V112.939H105.119V117.557C105.119 117.943 105.031 118.257 104.856 118.498C104.683 118.742 104.449 118.92 104.154 119.033C103.862 119.148 103.537 119.206 103.178 119.206ZM103.155 116.739C103.431 116.739 103.665 116.675 103.856 116.549C104.047 116.422 104.192 116.24 104.292 116.002C104.391 115.764 104.441 115.48 104.441 115.148C104.441 114.825 104.392 114.54 104.295 114.292C104.197 114.045 104.053 113.851 103.862 113.71C103.671 113.57 103.435 113.5 103.155 113.5C102.862 113.5 102.619 113.574 102.424 113.722C102.231 113.87 102.086 114.069 101.988 114.318C101.893 114.568 101.845 114.844 101.845 115.148C101.845 115.46 101.894 115.736 101.991 115.976C102.091 116.214 102.237 116.401 102.43 116.537C102.625 116.671 102.866 116.739 103.155 116.739ZM107.04 117.429V112.939H107.73V117.429H107.04ZM107.391 112.19C107.257 112.19 107.141 112.144 107.043 112.053C106.948 111.961 106.9 111.851 106.9 111.723C106.9 111.594 106.948 111.484 107.043 111.392C107.141 111.301 107.257 111.255 107.391 111.255C107.526 111.255 107.641 111.301 107.736 111.392C107.834 111.484 107.882 111.594 107.882 111.723C107.882 111.851 107.834 111.961 107.736 112.053C107.641 112.144 107.526 112.19 107.391 112.19ZM111.605 112.939V113.523H109.278V112.939H111.605ZM109.956 111.863H110.646V116.142C110.646 116.337 110.675 116.483 110.731 116.581C110.79 116.676 110.864 116.741 110.953 116.774C111.045 116.805 111.141 116.821 111.243 116.821C111.319 116.821 111.381 116.817 111.43 116.809C111.478 116.799 111.517 116.791 111.547 116.785L111.687 117.405C111.64 117.423 111.575 117.44 111.491 117.458C111.407 117.477 111.301 117.487 111.172 117.487C110.978 117.487 110.787 117.445 110.6 117.361C110.414 117.278 110.26 117.15 110.138 116.978C110.017 116.807 109.956 116.591 109.956 116.329V111.863ZM114.623 117.534C114.338 117.534 114.08 117.48 113.848 117.373C113.616 117.264 113.432 117.107 113.296 116.902C113.159 116.696 113.091 116.446 113.091 116.154C113.091 115.897 113.142 115.688 113.243 115.529C113.344 115.367 113.48 115.24 113.649 115.148C113.819 115.057 114.006 114.989 114.21 114.944C114.417 114.897 114.625 114.86 114.833 114.833C115.106 114.798 115.327 114.771 115.497 114.754C115.668 114.734 115.793 114.702 115.871 114.657C115.951 114.613 115.991 114.535 115.991 114.424V114.4C115.991 114.112 115.912 113.888 115.754 113.728C115.598 113.568 115.361 113.488 115.044 113.488C114.714 113.488 114.456 113.56 114.269 113.704C114.082 113.849 113.95 114.003 113.874 114.166L113.22 113.932C113.336 113.66 113.492 113.447 113.687 113.295C113.884 113.141 114.098 113.034 114.33 112.974C114.564 112.911 114.794 112.88 115.02 112.88C115.164 112.88 115.33 112.898 115.517 112.933C115.706 112.966 115.888 113.035 116.064 113.14C116.241 113.246 116.388 113.404 116.505 113.617C116.622 113.829 116.681 114.114 116.681 114.47V117.429H115.991V116.821H115.956C115.909 116.918 115.831 117.022 115.722 117.133C115.613 117.244 115.467 117.339 115.286 117.417C115.105 117.495 114.884 117.534 114.623 117.534ZM114.728 116.914C115.001 116.914 115.231 116.861 115.418 116.753C115.607 116.646 115.749 116.508 115.845 116.338C115.942 116.169 115.991 115.99 115.991 115.803V115.172C115.961 115.207 115.897 115.239 115.798 115.268C115.7 115.296 115.587 115.32 115.459 115.341C115.332 115.361 115.208 115.378 115.087 115.394C114.969 115.408 114.872 115.419 114.798 115.429C114.619 115.453 114.451 115.491 114.295 115.543C114.141 115.594 114.017 115.671 113.921 115.774C113.828 115.875 113.781 116.014 113.781 116.189C113.781 116.429 113.869 116.61 114.047 116.733C114.226 116.854 114.453 116.914 114.728 116.914ZM119.288 111.442V117.429H118.598V111.442H119.288ZM125.201 117.429L123.833 112.939H124.558L125.529 116.376H125.575L126.534 112.939H127.271L128.218 116.365H128.265L129.235 112.939H129.96L128.592 117.429H127.914L126.932 113.979H126.862L125.879 117.429H125.201ZM133.202 117.522C132.797 117.522 132.441 117.426 132.135 117.233C131.831 117.04 131.593 116.77 131.422 116.423C131.252 116.076 131.168 115.671 131.168 115.207C131.168 114.739 131.252 114.331 131.422 113.982C131.593 113.633 131.831 113.362 132.135 113.169C132.441 112.977 132.797 112.88 133.202 112.88C133.607 112.88 133.962 112.977 134.266 113.169C134.572 113.362 134.81 113.633 134.979 113.982C135.151 114.331 135.237 114.739 135.237 115.207C135.237 115.671 135.151 116.076 134.979 116.423C134.81 116.77 134.572 117.04 134.266 117.233C133.962 117.426 133.607 117.522 133.202 117.522ZM133.202 116.902C133.51 116.902 133.763 116.823 133.962 116.666C134.161 116.508 134.308 116.3 134.403 116.043C134.499 115.786 134.547 115.507 134.547 115.207C134.547 114.907 134.499 114.627 134.403 114.368C134.308 114.109 134.161 113.899 133.962 113.74C133.763 113.58 133.51 113.5 133.202 113.5C132.894 113.5 132.641 113.58 132.442 113.74C132.243 113.899 132.096 114.109 132.001 114.368C131.905 114.627 131.857 114.907 131.857 115.207C131.857 115.507 131.905 115.786 132.001 116.043C132.096 116.3 132.243 116.508 132.442 116.666C132.641 116.823 132.894 116.902 133.202 116.902ZM136.948 117.429V112.939H137.615V113.617H137.661C137.743 113.395 137.891 113.214 138.106 113.076C138.32 112.938 138.562 112.868 138.831 112.868C138.881 112.868 138.945 112.869 139.021 112.871C139.097 112.873 139.154 112.876 139.193 112.88V113.582C139.17 113.576 139.116 113.567 139.032 113.555C138.951 113.542 138.864 113.535 138.772 113.535C138.554 113.535 138.359 113.581 138.188 113.672C138.018 113.762 137.884 113.887 137.784 114.046C137.687 114.204 137.638 114.385 137.638 114.587V117.429H136.948ZM141.359 111.442V117.429H140.67V111.442H141.359ZM144.977 117.522C144.603 117.522 144.272 117.428 143.986 117.239C143.7 117.048 143.475 116.779 143.314 116.432C143.152 116.083 143.071 115.671 143.071 115.195C143.071 114.724 143.152 114.314 143.314 113.968C143.475 113.621 143.7 113.353 143.989 113.164C144.277 112.975 144.611 112.88 144.989 112.88C145.281 112.88 145.512 112.929 145.681 113.026C145.853 113.122 145.983 113.231 146.073 113.354C146.165 113.474 146.236 113.574 146.287 113.652H146.345V111.442H147.035V117.429H146.368V116.739H146.287C146.236 116.821 146.164 116.924 146.07 117.049C145.977 117.171 145.843 117.281 145.67 117.379C145.496 117.474 145.265 117.522 144.977 117.522ZM145.07 116.902C145.347 116.902 145.581 116.83 145.772 116.686C145.963 116.54 146.108 116.338 146.208 116.081C146.307 115.822 146.357 115.523 146.357 115.184C146.357 114.848 146.308 114.555 146.211 114.304C146.113 114.05 145.969 113.854 145.778 113.713C145.587 113.571 145.351 113.5 145.07 113.5C144.778 113.5 144.535 113.575 144.34 113.725C144.147 113.873 144.002 114.075 143.904 114.33C143.809 114.583 143.761 114.868 143.761 115.184C143.761 115.503 143.81 115.794 143.907 116.055C144.006 116.314 144.153 116.52 144.346 116.674C144.54 116.826 144.782 116.902 145.07 116.902Z" fill="#46484C"/>
</svg>
